<?xml version="1.0" encoding="UTF-8"?><svg xmlns="http://www.w3.org/2000/svg" xmlns:xlink="http://www.w3.org/1999/xlink" fill-opacity="1" color-rendering="auto" color-interpolation="auto" text-rendering="auto" stroke="black" stroke-linecap="square" width="615" stroke-miterlimit="10" shape-rendering="auto" stroke-opacity="1" fill="black" stroke-dasharray="none" font-weight="normal" stroke-width="1" height="435" font-family="'Dialog'" font-style="normal" stroke-linejoin="miter" font-size="12px" stroke-dashoffset="0" image-rendering="auto">
  <!--Generated by ySVG 2.5-->
  <defs id="genericDefs"/>
  <g>
    <defs id="defs1">
      <clipPath clipPathUnits="userSpaceOnUse" id="clipPath1">
        <path d="M0 0 L615 0 L615 435 L0 435 L0 0 Z"/>
      </clipPath>
      <clipPath clipPathUnits="userSpaceOnUse" id="clipPath2">
        <path d="M-22 72 L593 72 L593 507 L-22 507 L-22 72 Z"/>
      </clipPath>
    </defs>
    <g fill="white" text-rendering="geometricPrecision" shape-rendering="geometricPrecision" transform="translate(22,-72)" stroke="white">
      <rect x="-22" width="615" height="435" y="72" clip-path="url(#clipPath2)" stroke="none"/>
    </g>
    <g fill="rgb(246,248,250)" text-rendering="geometricPrecision" shape-rendering="geometricPrecision" transform="matrix(1,0,0,1,22,-72)" stroke="rgb(246,248,250)">
      <rect x="365.6803" y="87.666" clip-path="url(#clipPath2)" width="128.1457" rx="4" ry="4" height="31" stroke="none"/>
    </g>
    <g text-rendering="geometricPrecision" stroke-miterlimit="1.45" shape-rendering="geometricPrecision" transform="matrix(1,0,0,1,22,-72)" stroke-linecap="butt">
      <rect x="365.6803" y="87.666" clip-path="url(#clipPath2)" fill="none" width="128.1457" rx="4" ry="4" height="31"/>
      <text x="379.3948" xml:space="preserve" y="107.3262" clip-path="url(#clipPath2)" font-family="'Arial'" stroke="none">Hyperspectral data</text>
    </g>
    <g fill="rgb(245,245,245)" text-rendering="geometricPrecision" shape-rendering="geometricPrecision" transform="matrix(1,0,0,1,22,-72)" stroke="rgb(245,245,245)">
      <rect x="71.6266" y="357.7402" clip-path="url(#clipPath2)" width="430" rx="4" ry="4" height="83.7578" stroke="none"/>
      <rect x="71.6266" y="357.7402" clip-path="url(#clipPath2)" fill="rgb(235,235,235)" width="430" height="20.7578" stroke="none"/>
    </g>
    <g font-size="15px" stroke-linecap="butt" transform="matrix(1,0,0,1,22,-72)" text-rendering="geometricPrecision" font-family="'Arial'" shape-rendering="geometricPrecision" stroke-miterlimit="1.45">
      <text x="251.1993" xml:space="preserve" y="373.3193" clip-path="url(#clipPath2)" stroke="none">Algorithms</text>
      <rect x="71.6266" y="357.7402" clip-path="url(#clipPath2)" fill="none" width="430" stroke-dasharray="6,2" rx="4" ry="4" height="83.7578"/>
    </g>
    <g fill="rgb(246,248,250)" text-rendering="geometricPrecision" shape-rendering="geometricPrecision" transform="matrix(1,0,0,1,22,-72)" stroke="rgb(246,248,250)">
      <rect x="86.6266" y="394.498" clip-path="url(#clipPath2)" width="64" rx="4" ry="4" height="31" stroke="none"/>
    </g>
    <g text-rendering="geometricPrecision" stroke-miterlimit="1.45" shape-rendering="geometricPrecision" transform="matrix(1,0,0,1,22,-72)" stroke-linecap="butt">
      <rect x="86.6266" y="394.498" clip-path="url(#clipPath2)" fill="none" width="64" rx="4" ry="4" height="31"/>
      <text x="110.6285" xml:space="preserve" y="414.1582" clip-path="url(#clipPath2)" font-family="'Arial'" stroke="none">RF</text>
    </g>
    <g fill="rgb(246,248,250)" text-rendering="geometricPrecision" shape-rendering="geometricPrecision" transform="matrix(1,0,0,1,22,-72)" stroke="rgb(246,248,250)">
      <rect x="170.6266" y="394.498" clip-path="url(#clipPath2)" width="64" rx="4" ry="4" height="31" stroke="none"/>
    </g>
    <g text-rendering="geometricPrecision" stroke-miterlimit="1.45" shape-rendering="geometricPrecision" transform="matrix(1,0,0,1,22,-72)" stroke-linecap="butt">
      <rect x="170.6266" y="394.498" clip-path="url(#clipPath2)" fill="none" width="64" rx="4" ry="4" height="31"/>
      <text x="189.6246" xml:space="preserve" y="414.1582" clip-path="url(#clipPath2)" font-family="'Arial'" stroke="none">SVM</text>
    </g>
    <g fill="rgb(246,248,250)" text-rendering="geometricPrecision" shape-rendering="geometricPrecision" transform="matrix(1,0,0,1,22,-72)" stroke="rgb(246,248,250)">
      <rect x="254.6266" y="394.498" clip-path="url(#clipPath2)" width="64" rx="4" ry="4" height="31" stroke="none"/>
    </g>
    <g text-rendering="geometricPrecision" stroke-miterlimit="1.45" shape-rendering="geometricPrecision" transform="matrix(1,0,0,1,22,-72)" stroke-linecap="butt">
      <rect x="254.6266" y="394.498" clip-path="url(#clipPath2)" fill="none" width="64" rx="4" ry="4" height="31"/>
      <text x="273.9557" xml:space="preserve" y="414.1582" clip-path="url(#clipPath2)" font-family="'Arial'" stroke="none">XGB</text>
    </g>
    <g fill="rgb(246,248,250)" text-rendering="geometricPrecision" shape-rendering="geometricPrecision" transform="matrix(1,0,0,1,22,-72)" stroke="rgb(246,248,250)">
      <rect x="338.6266" y="394.498" clip-path="url(#clipPath2)" width="64" rx="4" ry="4" height="31" stroke="none"/>
    </g>
    <g text-rendering="geometricPrecision" stroke-miterlimit="1.45" shape-rendering="geometricPrecision" transform="matrix(1,0,0,1,22,-72)" stroke-linecap="butt">
      <rect x="338.6266" y="394.498" clip-path="url(#clipPath2)" fill="none" width="64" rx="4" ry="4" height="31"/>
      <text x="354.6158" xml:space="preserve" y="414.1582" clip-path="url(#clipPath2)" font-family="'Arial'" stroke="none">Lasso</text>
    </g>
    <g fill="rgb(246,248,250)" text-rendering="geometricPrecision" shape-rendering="geometricPrecision" transform="matrix(1,0,0,1,22,-72)" stroke="rgb(246,248,250)">
      <rect x="422.6266" y="394.498" clip-path="url(#clipPath2)" width="64" rx="4" ry="4" height="31" stroke="none"/>
    </g>
    <g text-rendering="geometricPrecision" stroke-miterlimit="1.45" shape-rendering="geometricPrecision" transform="matrix(1,0,0,1,22,-72)" stroke-linecap="butt">
      <rect x="422.6266" y="394.498" clip-path="url(#clipPath2)" fill="none" width="64" rx="4" ry="4" height="31"/>
      <text x="438.9498" xml:space="preserve" y="414.1582" clip-path="url(#clipPath2)" font-family="'Arial'" stroke="none">Ridge</text>
    </g>
    <g fill="rgb(245,245,245)" text-rendering="geometricPrecision" shape-rendering="geometricPrecision" transform="matrix(1,0,0,1,22,-72)" stroke="rgb(245,245,245)">
      <rect x="282" y="139.0742" clip-path="url(#clipPath2)" width="295.5063" rx="4" ry="4" height="187.7578" stroke="none"/>
      <rect x="282" y="139.0742" clip-path="url(#clipPath2)" fill="rgb(235,235,235)" width="295.5063" height="20.7578" stroke="none"/>
    </g>
    <g font-size="15px" stroke-linecap="butt" transform="matrix(1,0,0,1,22,-72)" text-rendering="geometricPrecision" font-family="'Arial'" shape-rendering="geometricPrecision" stroke-miterlimit="1.45">
      <text x="388.0674" xml:space="preserve" y="154.6533" clip-path="url(#clipPath2)" stroke="none">Feature sets</text>
      <rect x="282" y="139.0742" clip-path="url(#clipPath2)" fill="none" width="295.5063" stroke-dasharray="6,2" rx="4" ry="4" height="187.7578"/>
    </g>
    <g fill="rgb(246,248,250)" text-rendering="geometricPrecision" shape-rendering="geometricPrecision" transform="matrix(1,0,0,1,22,-72)" stroke="rgb(246,248,250)">
      <rect x="297" y="175.832" clip-path="url(#clipPath2)" width="64" rx="4" ry="4" height="31" stroke="none"/>
    </g>
    <g text-rendering="geometricPrecision" stroke-miterlimit="1.45" shape-rendering="geometricPrecision" transform="matrix(1,0,0,1,22,-72)" stroke-linecap="butt">
      <rect x="297" y="175.832" clip-path="url(#clipPath2)" fill="none" width="64" rx="4" ry="4" height="31"/>
      <text x="320.334" xml:space="preserve" y="195.4922" clip-path="url(#clipPath2)" font-family="'Arial'" stroke="none">HR</text>
    </g>
    <g fill="rgb(246,248,250)" text-rendering="geometricPrecision" shape-rendering="geometricPrecision" transform="matrix(1,0,0,1,22,-72)" stroke="rgb(246,248,250)">
      <rect x="397.7532" y="175.832" clip-path="url(#clipPath2)" width="64" rx="4" ry="4" height="31" stroke="none"/>
    </g>
    <g text-rendering="geometricPrecision" stroke-miterlimit="1.45" shape-rendering="geometricPrecision" transform="matrix(1,0,0,1,22,-72)" stroke-linecap="butt">
      <rect x="397.7532" y="175.832" clip-path="url(#clipPath2)" fill="none" width="64" rx="4" ry="4" height="31"/>
      <text x="424.0842" xml:space="preserve" y="195.4922" clip-path="url(#clipPath2)" font-family="'Arial'" stroke="none">VI</text>
    </g>
    <g fill="rgb(246,248,250)" text-rendering="geometricPrecision" shape-rendering="geometricPrecision" transform="matrix(1,0,0,1,22,-72)" stroke="rgb(246,248,250)">
      <rect x="498.5063" y="175.832" clip-path="url(#clipPath2)" width="64" rx="4" ry="4" height="31" stroke="none"/>
    </g>
    <g text-rendering="geometricPrecision" stroke-miterlimit="1.45" shape-rendering="geometricPrecision" transform="matrix(1,0,0,1,22,-72)" stroke-linecap="butt">
      <rect x="498.5063" y="175.832" clip-path="url(#clipPath2)" fill="none" width="64" rx="4" ry="4" height="31"/>
      <text x="520.1733" xml:space="preserve" y="195.4922" clip-path="url(#clipPath2)" font-family="'Arial'" stroke="none">NRI</text>
    </g>
    <g fill="rgb(246,248,250)" text-rendering="geometricPrecision" shape-rendering="geometricPrecision" transform="matrix(1,0,0,1,22,-72)" stroke="rgb(246,248,250)">
      <rect x="482.5063" y="268.832" clip-path="url(#clipPath2)" width="64" rx="4" ry="4" height="31" stroke="none"/>
    </g>
    <g text-rendering="geometricPrecision" stroke-miterlimit="1.45" shape-rendering="geometricPrecision" transform="matrix(1,0,0,1,22,-72)" stroke-linecap="butt">
      <rect x="482.5063" y="268.832" clip-path="url(#clipPath2)" fill="none" width="64" rx="4" ry="4" height="31"/>
      <text x="496.5063" xml:space="preserve" y="288.4922" clip-path="url(#clipPath2)" font-family="'Arial'" stroke="none">NRI-VI</text>
    </g>
    <g fill="rgb(246,248,250)" text-rendering="geometricPrecision" shape-rendering="geometricPrecision" transform="matrix(1,0,0,1,22,-72)" stroke="rgb(246,248,250)">
      <rect x="397.7532" y="268.832" clip-path="url(#clipPath2)" width="64" rx="4" ry="4" height="31" stroke="none"/>
    </g>
    <g text-rendering="geometricPrecision" stroke-miterlimit="1.45" shape-rendering="geometricPrecision" transform="matrix(1,0,0,1,22,-72)" stroke-linecap="butt">
      <rect x="397.7532" y="268.832" clip-path="url(#clipPath2)" fill="none" width="64" rx="4" ry="4" height="31"/>
      <text x="401.0891" xml:space="preserve" y="288.4922" clip-path="url(#clipPath2)" font-family="'Arial'" stroke="none">HR-NRI-VI</text>
    </g>
    <g fill="rgb(246,248,250)" text-rendering="geometricPrecision" shape-rendering="geometricPrecision" transform="matrix(1,0,0,1,22,-72)" stroke="rgb(246,248,250)">
      <rect x="313" y="268.832" clip-path="url(#clipPath2)" width="64" rx="4" ry="4" height="31" stroke="none"/>
    </g>
    <g text-rendering="geometricPrecision" stroke-miterlimit="1.45" shape-rendering="geometricPrecision" transform="matrix(1,0,0,1,22,-72)" stroke-linecap="butt">
      <rect x="313" y="268.832" clip-path="url(#clipPath2)" fill="none" width="64" rx="4" ry="4" height="31"/>
      <text x="324.0029" xml:space="preserve" y="288.4922" clip-path="url(#clipPath2)" font-family="'Arial'" stroke="none">HR-NRI</text>
      <path fill="none" d="M429.7532 118.666 L429.7532 130.6201" clip-path="url(#clipPath2)"/>
      <path d="M429.7532 138.6201 L434.7532 126.6201 L429.7532 129.6201 L424.7532 126.6201 Z" clip-path="url(#clipPath2)" stroke="none"/>
      <path fill="none" d="M429.7532 327.2861 L429.7532 336.332 L358.1266 336.332 L358.1266 349.2861" clip-path="url(#clipPath2)"/>
      <path d="M358.1266 357.2861 L363.1266 345.2861 L358.1266 348.2861 L353.1266 345.2861 Z" clip-path="url(#clipPath2)" stroke="none"/>
      <path fill="none" d="M530.5063 206.832 L530.5063 260.8018" clip-path="url(#clipPath2)"/>
      <path d="M530.5063 268.8018 L535.5063 256.8018 L530.5063 259.8018 L525.5063 256.8018 Z" clip-path="url(#clipPath2)" stroke="none"/>
      <path fill="none" d="M429.7532 206.832 L429.7532 248.332 L498.5063 248.332 L498.5063 260.792" clip-path="url(#clipPath2)"/>
      <path d="M498.5063 268.792 L503.5063 256.792 L498.5063 259.792 L493.5063 256.792 Z" clip-path="url(#clipPath2)" stroke="none"/>
      <path fill="none" d="M329 206.832 L329 227.332 L408.4198 227.332 L408.4198 260.7915" clip-path="url(#clipPath2)"/>
      <path d="M408.4198 268.7915 L413.4198 256.7915 L408.4198 259.7915 L403.4198 256.7915 Z" clip-path="url(#clipPath2)" stroke="none"/>
      <path fill="none" d="M429.7532 206.832 L429.7532 260.8018" clip-path="url(#clipPath2)"/>
      <path d="M429.7532 268.8018 L434.7532 256.8018 L429.7532 259.8018 L424.7532 256.8018 Z" clip-path="url(#clipPath2)" stroke="none"/>
      <path fill="none" d="M530.5063 206.832 L530.5063 227.332 L451.0865 227.332 L451.0865 243.332 M451.0865 253.332 L451.0865 260.7915" clip-path="url(#clipPath2)"/>
      <path d="M451.0865 268.7915 L456.0865 256.7915 L451.0865 259.7915 L446.0865 256.7915 Z" clip-path="url(#clipPath2)" stroke="none"/>
      <path fill="none" d="M329 206.832 L329 260.8018" clip-path="url(#clipPath2)"/>
      <path d="M329 268.8018 L334 256.8018 L329 259.8018 L324 256.8018 Z" clip-path="url(#clipPath2)" stroke="none"/>
      <path fill="none" d="M429.7532 206.832 L429.7532 248.332 L413.4198 248.332 M403.4198 248.332 L361 248.332 L361 260.792" clip-path="url(#clipPath2)"/>
      <path d="M361 268.792 L366 256.792 L361 259.792 L356 256.792 Z" clip-path="url(#clipPath2)" stroke="none"/>
    </g>
    <g fill="rgb(245,245,245)" text-rendering="geometricPrecision" shape-rendering="geometricPrecision" transform="matrix(1,0,0,1,22,-72)" stroke="rgb(245,245,245)">
      <rect x="-6.25" y="137.5742" clip-path="url(#clipPath2)" width="273.25" rx="4" ry="4" height="189.2578" stroke="none"/>
      <rect x="-6.25" y="137.5742" clip-path="url(#clipPath2)" fill="rgb(235,235,235)" width="273.25" height="20.7578" stroke="none"/>
    </g>
    <g font-size="15px" stroke-linecap="butt" transform="matrix(1,0,0,1,22,-72)" text-rendering="geometricPrecision" font-family="'Arial'" shape-rendering="geometricPrecision" stroke-miterlimit="1.45">
      <text x="109.9587" xml:space="preserve" y="153.1533" clip-path="url(#clipPath2)" stroke="none">Filters</text>
      <rect x="-6.25" y="137.5742" clip-path="url(#clipPath2)" fill="none" width="273.25" stroke-dasharray="6,2" rx="4" ry="4" height="189.2578"/>
    </g>
    <g fill="rgb(246,248,250)" text-rendering="geometricPrecision" shape-rendering="geometricPrecision" transform="matrix(1,0,0,1,22,-72)" stroke="rgb(246,248,250)">
      <rect x="20.75" y="226.582" clip-path="url(#clipPath2)" width="64" rx="4" ry="4" height="31" stroke="none"/>
    </g>
    <g text-rendering="geometricPrecision" stroke-miterlimit="1.45" shape-rendering="geometricPrecision" transform="matrix(1,0,0,1,22,-72)" stroke-linecap="butt">
      <rect x="20.75" y="226.582" clip-path="url(#clipPath2)" fill="none" width="64" rx="4" ry="4" height="31"/>
      <text x="36.7393" xml:space="preserve" y="246.2422" clip-path="url(#clipPath2)" font-family="'Arial'" stroke="none">Borda</text>
    </g>
    <g fill="rgb(246,248,250)" text-rendering="geometricPrecision" shape-rendering="geometricPrecision" transform="matrix(1,0,0,1,22,-72)" stroke="rgb(246,248,250)">
      <rect x="20.75" y="279.832" clip-path="url(#clipPath2)" width="64" rx="4" ry="4" height="31" stroke="none"/>
    </g>
    <g text-rendering="geometricPrecision" stroke-miterlimit="1.45" shape-rendering="geometricPrecision" transform="matrix(1,0,0,1,22,-72)" stroke-linecap="butt">
      <rect x="20.75" y="279.832" clip-path="url(#clipPath2)" fill="none" width="64" rx="4" ry="4" height="31"/>
      <text x="28.4014" xml:space="preserve" y="299.4922" clip-path="url(#clipPath2)" font-family="'Arial'" stroke="none">Info Gain</text>
    </g>
    <g fill="rgb(246,248,250)" text-rendering="geometricPrecision" shape-rendering="geometricPrecision" transform="matrix(1,0,0,1,22,-72)" stroke="rgb(246,248,250)">
      <rect x="100.25" y="173.332" clip-path="url(#clipPath2)" width="64" rx="4" ry="4" height="31" stroke="none"/>
    </g>
    <g text-rendering="geometricPrecision" stroke-miterlimit="1.45" shape-rendering="geometricPrecision" transform="matrix(1,0,0,1,22,-72)" stroke-linecap="butt">
      <rect x="100.25" y="173.332" clip-path="url(#clipPath2)" fill="none" width="64" rx="4" ry="4" height="31"/>
      <text x="119.9131" xml:space="preserve" y="192.9922" clip-path="url(#clipPath2)" font-family="'Arial'" stroke="none">PCA</text>
    </g>
    <g fill="rgb(246,248,250)" text-rendering="geometricPrecision" shape-rendering="geometricPrecision" transform="matrix(1,0,0,1,22,-72)" stroke="rgb(246,248,250)">
      <rect x="100.25" y="226.582" clip-path="url(#clipPath2)" width="64" rx="4" ry="4" height="31" stroke="none"/>
    </g>
    <g text-rendering="geometricPrecision" stroke-miterlimit="1.45" shape-rendering="geometricPrecision" transform="matrix(1,0,0,1,22,-72)" stroke-linecap="butt">
      <rect x="100.25" y="226.582" clip-path="url(#clipPath2)" fill="none" width="64" rx="4" ry="4" height="31"/>
      <text x="109.9023" xml:space="preserve" y="246.2422" clip-path="url(#clipPath2)" font-family="'Arial'" stroke="none">Pearson</text>
    </g>
    <g fill="rgb(246,248,250)" text-rendering="geometricPrecision" shape-rendering="geometricPrecision" transform="matrix(1,0,0,1,22,-72)" stroke="rgb(246,248,250)">
      <rect x="179.75" y="226.582" clip-path="url(#clipPath2)" width="64" rx="4" ry="4" height="31" stroke="none"/>
    </g>
    <g text-rendering="geometricPrecision" stroke-miterlimit="1.45" shape-rendering="geometricPrecision" transform="matrix(1,0,0,1,22,-72)" stroke-linecap="butt">
      <rect x="179.75" y="226.582" clip-path="url(#clipPath2)" fill="none" width="64" rx="4" ry="4" height="31"/>
      <text x="194.4121" xml:space="preserve" y="246.2422" clip-path="url(#clipPath2)" font-family="'Arial'" stroke="none">RelieF</text>
    </g>
    <g fill="rgb(246,248,250)" text-rendering="geometricPrecision" shape-rendering="geometricPrecision" transform="matrix(1,0,0,1,22,-72)" stroke="rgb(246,248,250)">
      <rect x="100.25" y="279.832" clip-path="url(#clipPath2)" width="64" rx="4" ry="4" height="31" stroke="none"/>
    </g>
    <g text-rendering="geometricPrecision" stroke-miterlimit="1.45" shape-rendering="geometricPrecision" transform="matrix(1,0,0,1,22,-72)" stroke-linecap="butt">
      <rect x="100.25" y="279.832" clip-path="url(#clipPath2)" fill="none" width="64" rx="4" ry="4" height="31"/>
      <text x="113.5879" xml:space="preserve" y="299.4922" clip-path="url(#clipPath2)" font-family="'Arial'" stroke="none">MRMR</text>
    </g>
    <g fill="rgb(246,248,250)" text-rendering="geometricPrecision" shape-rendering="geometricPrecision" transform="matrix(1,0,0,1,22,-72)" stroke="rgb(246,248,250)">
      <rect x="179.75" y="279.832" clip-path="url(#clipPath2)" width="64" rx="4" ry="4" height="31" stroke="none"/>
    </g>
    <g text-rendering="geometricPrecision" stroke-miterlimit="1.45" shape-rendering="geometricPrecision" transform="matrix(1,0,0,1,22,-72)" stroke-linecap="butt">
      <rect x="179.75" y="279.832" clip-path="url(#clipPath2)" fill="none" width="64" rx="4" ry="4" height="31"/>
      <text x="202.082" xml:space="preserve" y="299.4922" clip-path="url(#clipPath2)" font-family="'Arial'" stroke="none">Car</text>
    </g>
    <g fill="rgb(246,248,250)" text-rendering="geometricPrecision" shape-rendering="geometricPrecision" transform="matrix(1,0,0,1,22,-72)" stroke="rgb(246,248,250)">
      <rect x="20.75" y="173.332" clip-path="url(#clipPath2)" width="64" rx="4" ry="4" height="31" stroke="none"/>
    </g>
    <g text-rendering="geometricPrecision" stroke-miterlimit="1.45" shape-rendering="geometricPrecision" transform="matrix(1,0,0,1,22,-72)" stroke-linecap="butt">
      <rect x="20.75" y="173.332" clip-path="url(#clipPath2)" fill="none" width="64" rx="4" ry="4" height="31"/>
      <text x="36.7539" xml:space="preserve" y="192.9922" clip-path="url(#clipPath2)" font-family="'Arial'" stroke="none">CMIM</text>
    </g>
    <g fill="rgb(246,248,250)" text-rendering="geometricPrecision" shape-rendering="geometricPrecision" transform="matrix(1,0,0,1,22,-72)" stroke="rgb(246,248,250)">
      <rect x="154.8734" y="460.998" clip-path="url(#clipPath2)" width="263.5063" rx="4" ry="4" height="31" stroke="none"/>
    </g>
    <g text-rendering="geometricPrecision" stroke-miterlimit="1.45" shape-rendering="geometricPrecision" transform="matrix(1,0,0,1,22,-72)" stroke-linecap="butt">
      <rect x="154.8734" y="460.998" clip-path="url(#clipPath2)" fill="none" width="263.5063" rx="4" ry="4" height="31"/>
      <text x="181.9049" xml:space="preserve" y="480.6582" clip-path="url(#clipPath2)" font-family="'Arial'" stroke="none">Permutation-based variable importance</text>
      <path fill="none" d="M215.1266 326.8506 L215.1266 349.2861" clip-path="url(#clipPath2)"/>
      <path d="M215.1266 357.2861 L220.1266 345.2861 L215.1266 348.2861 L210.1266 345.2861 Z" clip-path="url(#clipPath2)" stroke="none"/>
      <path fill="none" d="M286.6266 441.9521 L286.6266 452.9608" clip-path="url(#clipPath2)"/>
      <path d="M286.6266 460.9608 L291.6266 448.9608 L286.6266 451.9608 L281.6266 448.9608 Z" clip-path="url(#clipPath2)" stroke="none"/>
    </g>
  </g>
</svg>
